<?xml version="1.0" ?><!DOCTYPE svg  PUBLIC '-//W3C//DTD SVG 1.1//EN'  'http://www.w3.org/Graphics/SVG/1.1/DTD/svg11.dtd'><svg enable-background="new 0 0 70 70" id="Layer_1" version="1.1" viewBox="0 0 70 70" xml:space="preserve" xmlns="http://www.w3.org/2000/svg" xmlns:xlink="http://www.w3.org/1999/xlink"><g><path d="M40.5458984,66.2255859c-0.230957,0-0.4589844-0.0063477-0.6816406-0.0151367l-9.034668-0.3696289   c-1.9804688-0.0810547-3.8754883-0.2583008-5.2871094-1.5239258c-1.5327148-1.3730469-1.8535156-3.4926758-2.0512695-5.5454102   c-0.2709961-2.815918-0.7836914-6.4951172-1.2792969-10.0532227c-1.4711914-10.5595703-1.9711914-14.965332-0.9702148-16.0175781   c1.1005859-1.1567383,10.8740234-1.3295898,16.6015625-1.3295898c9.793457,0,10.4155273,0.4770508,10.6201172,0.6337891   c0.4428711,0.3388672,0.9941406,0.7612305-0.4829102,12.265625c-0.7983398,6.2177734-1.9331055,13.4902344-2.890625,18.5273438   c-0.109375,0.574707-0.2451172,1.2895508-0.6674805,1.9067383C43.4892578,66.0678711,41.7631836,66.2255859,40.5458984,66.2255859z    M22.3339844,33.7509766c-0.5170898,1.2626953,0.5678711,9.0493164,1.3632813,14.7602539   c0.4980469,3.5737305,1.0131836,7.269043,1.2871094,10.1166992c0.1762695,1.8310547,0.4282227,3.5581055,1.559082,4.5717773   c1.0410156,0.9335938,2.6503906,1.0732422,4.3476563,1.1420898l9.034668,0.3696289   c0.2021484,0.0083008,0.4101563,0.0141602,0.6201172,0.0141602c1.3950195,0,2.2333984-0.2758789,2.6386719-0.8681641   c0.2451172-0.3579102,0.3442383-0.8793945,0.4316406-1.3398438c1.8876953-9.9282227,4.1542969-26.7148438,3.8125-29.3105469   c-1.0014648-0.1713867-4.453125-0.3359375-9.5854492-0.3359375C28.9321289,32.8710938,23.2832031,33.3183594,22.3339844,33.7509766   z" fill="#373684"/><path d="M46.4228516,32.96875c-0.0522461,0-0.1044922-0.0053711-0.1572266-0.0166016   c-0.4052734-0.0864258-0.6635742-0.4848633-0.5771484-0.8896484c0.480957-2.2558594,0.9404297-4.3447266,1.4003906-6.4345703   c0.4550781-2.0698242,0.9106445-4.1401367,1.387207-6.3740234c0.2036133-0.9560547,0.340332-1.7412109,0.0927734-2.4077148   c-0.262207-0.7070313-1.0361328-1.2338867-1.8408203-1.2529297c-0.7919922-0.0297852-1.6264648,0.4326172-2.1049805,1.1503906   c-0.3969727,0.5957031-0.5810547,1.3632813-0.7587891,2.1054688c-0.5854492,2.4394531-1.0830078,4.6435547-1.5825195,6.8574219   c-0.4604492,2.0415039-0.9233398,4.0917969-1.4584961,6.3417969c-0.0952148,0.402832-0.5009766,0.6542969-0.902832,0.5561523   c-0.4033203-0.0957031-0.6523438-0.5-0.5561523-0.902832c0.5332031-2.2446289,0.9946289-4.2890625,1.4541016-6.3251953   c0.5014648-2.2207031,1-4.4306641,1.5869141-6.8769531c0.1987305-0.8295898,0.4243164-1.7700195,0.9697266-2.5878906   c0.769043-1.1523438,2.0898438-1.8388672,3.3886719-1.8183594c1.4165039,0.0341797,2.7373047,0.9516602,3.2114258,2.2314453   c0.418457,1.1279297,0.1689453,2.300293-0.0322266,3.2421875c-0.4770508,2.2373047-0.9331055,4.3105469-1.3891602,6.3833008   c-0.4589844,2.0869141-0.9179688,4.1728516-1.3984375,6.4248047C47.0800781,32.7275391,46.769043,32.96875,46.4228516,32.96875z" fill="#373684"/><path d="M48.5634766,22.2290039c-0.0297852,0-0.0600586-0.0019531-0.0908203-0.0053711l-5.7709961-0.6875   c-0.4111328-0.0498047-0.7041016-0.4233398-0.6547852-0.8344727c0.0493164-0.4116211,0.418457-0.7050781,0.8344727-0.6547852   l5.7709961,0.6875c0.4111328,0.0498047,0.7041016,0.4233398,0.6547852,0.8344727   C49.2612305,21.949707,48.9375,22.2290039,48.5634766,22.2290039z" fill="#373684"/><path d="M32.3120117,32.75c-0.3935547,0-0.7241211-0.3066406-0.7480469-0.7045898   C31.3432617,28.4101563,31.612793,18.4057617,32.65625,17.472168c0.7402344-0.6625977,1.7255859-0.7583008,2.5009766-0.7680664   c0.8979492-0.0014648,1.6474609,0.2797852,2.1699219,0.8154297c0.7978516,0.8178711,0.8388672,1.9936523,0.8662109,2.7719727   c0.0742188,2.1210938,0.152832,3.9780273,0.230957,5.8344727c0.0786133,1.8608398,0.1567383,3.7216797,0.2314453,5.8476563   c0.0146484,0.4140625-0.309082,0.7612305-0.7231445,0.7758789c-0.4179688,0.0209961-0.7612305-0.3095703-0.7758789-0.7231445   c-0.0742188-2.1220703-0.152832-3.9794922-0.230957-5.8369141c-0.0786133-1.8603516-0.1567383-3.7202148-0.2314453-5.8452148   c-0.0253906-0.7246094-0.078125-1.4057617-0.440918-1.7773438c-0.2299805-0.2363281-0.6328125-0.371582-1.078125-0.362793   c-0.4799805,0.0058594-1.0678711,0.0498047-1.4438477,0.3251953c-0.4013672,1.0791016-0.9746094,8.4116211-0.6704102,13.425293   c0.0253906,0.4135742-0.2895508,0.769043-0.703125,0.7939453C32.3422852,32.7495117,32.3271484,32.75,32.3120117,32.75z" fill="#373684"/><path d="M37.0219727,18.8442383c-0.0161133,0-0.0317383-0.0004883-0.0478516-0.0009766   c-0.4140625-0.0141602-0.737793-0.3613281-0.7236328-0.7753906c0.0146484-0.4135742,0.3637695-0.7416992,0.7753906-0.7236328   c0.3071289-0.0185547,1.2583008-0.8969727,1.4570313-1.6586914c0.1928711-0.7402344-0.0366211-2.2504883-0.5019531-3.2978516   c-1.2304688-2.7724609-0.1806641-5.0229492,0.4462891-6.3676758c0.1484375-0.3183594,0.3442383-0.7373047,0.3916016-0.953125   c-1.0932617-0.3994141-3.6601563,0.9702148-5.449707,2.5385742c-1.7524414,1.5366211-2.1547852,3.6591797-2.1831055,5.1694336   c-0.0400391,2.1342773,0.7192383,3.6269531,2.2573242,4.4365234c0.3662109,0.1928711,0.5068359,0.6464844,0.3139648,1.0131836   c-0.1933594,0.3666992-0.6455078,0.5063477-1.0131836,0.3139648c-2.0512695-1.0800781-3.1088867-3.0825195-3.0581055-5.7919922   c0.0488281-2.5620117,1.0053711-4.7880859,2.6943359-6.269043c0.1855469-0.1621094,4.5664063-3.9594727,7.1289063-2.75   C40.8549805,4.3637695,40.237793,5.6875,39.7866211,6.6542969c-0.6186523,1.3261719-1.3881836,2.9760742-0.4345703,5.125   c0.519043,1.1689453,0.8994141,3.0678711,0.5820313,4.2851563C39.6450195,17.1733398,38.2734375,18.8442383,37.0219727,18.8442383z   " fill="#373684"/><path d="M23.34375,33.25c-0.3100586,0-0.6000977-0.1933594-0.7080078-0.5024414   c-1.0214844-2.9213867-1.2973633-5.46875-1.6166992-8.4179688l-0.1171875-1.0693359   c-0.2338867-2.0947266-0.4755859-4.2612305-0.3735352-6.4335938c0.0029297-0.0649414,0.3569336-6.5170898,2.2436523-6.7749023   c1.4643555-0.1860352,3.7480469,2.9550781,4.3666992,4.3950195c0.7587891,1.7651367,1.0585938,3.6430664,1.3486328,5.4589844   c0.3603516,2.2583008,0.6347656,4.0878906,0.9091797,5.9169922c0.2734375,1.824707,0.546875,3.6494141,0.9067383,5.902832   c0.0654297,0.4091797-0.2133789,0.793457-0.6225586,0.8588867c-0.4047852,0.0683594-0.7929688-0.2128906-0.8588867-0.6225586   c-0.3603516-2.2583008-0.6347656-4.0878906-0.9091797-5.9169922c-0.2734375-1.824707-0.546875-3.6494141-0.9067383-5.902832   c-0.2753906-1.7250977-0.5600586-3.5092773-1.2451172-5.1025391c-0.6005859-1.3974609-2.0546875-3.0136719-2.6943359-3.4145508   c-0.3969727,0.7495117-0.9453125,3.2529297-1.0400391,5.2719727c-0.0961914,2.0537109,0.1386719,4.1601563,0.3666992,6.1967773   l0.1171875,1.0742188c0.3095703,2.8574219,0.5766602,5.3251953,1.5415039,8.0844727   c0.1367188,0.3911133-0.0693359,0.8188477-0.4604492,0.9555664C23.5092773,33.2368164,23.4257813,33.25,23.34375,33.25z" fill="#373684"/><path d="M21.9907227,18.4672852c-0.2236328,0-0.4526367-0.0097656-0.6865234-0.0322266   c-0.4121094-0.0390625-0.7148438-0.4047852-0.6757813-0.8173828c0.0385742-0.4125977,0.4077148-0.7211914,0.8173828-0.6757813   c1.1787109,0.1083984,2.2431641-0.1660156,3.3691406-0.4584961c0.5859375-0.1523438,1.1914063-0.3100586,1.8242188-0.4135742   C27.043457,16.0004883,27.4335938,16.2802734,27.5,16.6894531c0.0668945,0.4086914-0.2104492,0.7939453-0.6196289,0.8608398   c-0.5634766,0.0917969-1.109375,0.234375-1.6875,0.3847656C24.1860352,18.1972656,23.1503906,18.4672852,21.9907227,18.4672852z" fill="#373684"/><path d="M43.6552734,36.8632813c-0.3525391,0-0.6665039-0.2495117-0.7358398-0.6088867   c-0.0776367-0.4067383,0.1889648-0.7998047,0.5957031-0.8779297l4.253418-0.8149414   c0.4008789-0.0786133,0.7988281,0.1879883,0.8774414,0.5952148c0.078125,0.4067383-0.1879883,0.7998047-0.5952148,0.8774414   l-4.253418,0.815918C43.75,36.8588867,43.7021484,36.8632813,43.6552734,36.8632813z" fill="#373684"/><path d="M43.6660156,40.2519531c-0.3730469,0-0.6958008-0.277832-0.7431641-0.6572266   c-0.0512695-0.4111328,0.2402344-0.7856445,0.6513672-0.8369141l3.918457-0.4873047   c0.4121094-0.0478516,0.7856445,0.2407227,0.8364258,0.6518555c0.0512695,0.4111328-0.2407227,0.7856445-0.6518555,0.8364258   l-3.9174805,0.4873047C43.7280273,40.25,43.6967773,40.2519531,43.6660156,40.2519531z" fill="#373684"/><path d="M42.9868164,43.9311523c-0.3569336,0-0.6728516-0.2553711-0.7373047-0.6191406   c-0.0722656-0.4077148,0.199707-0.796875,0.6074219-0.8691406l4.2495117-0.7524414   c0.409668-0.0722656,0.796875,0.199707,0.8691406,0.6074219s-0.199707,0.796875-0.6074219,0.8691406l-4.2495117,0.7524414   C43.0742188,43.9272461,43.0302734,43.9311523,42.9868164,43.9311523z" fill="#373684"/><path d="M42.5825195,48.3334961c-0.3579102,0-0.6748047-0.2573242-0.7382813-0.6220703   c-0.0703125-0.4082031,0.203125-0.7963867,0.6113281-0.8671875c0.6337891-0.109375,1.3955078-0.2119141,2.1567383-0.3144531   c0.7421875-0.1000977,1.4838867-0.199707,2.1010742-0.3066406c0.4121094-0.0683594,0.7963867,0.203125,0.8671875,0.6113281   c0.0703125,0.4082031-0.203125,0.7963867-0.6113281,0.8671875c-0.6337891,0.109375-1.3955078,0.2119141-2.1567383,0.3144531   c-0.7421875,0.1000977-1.4838867,0.199707-2.1010742,0.3066406C42.6679688,48.3300781,42.625,48.3334961,42.5825195,48.3334961z" fill="#373684"/><path d="M42.0825195,52.331543c-0.3989258,0-0.730957-0.3139648-0.7485352-0.7167969   c-0.0185547-0.4135742,0.3017578-0.7641602,0.7158203-0.7822266l3.7504883-0.1669922   c0.3989258-0.0205078,0.7636719,0.3027344,0.7827148,0.7163086c0.0180664,0.4140625-0.3027344,0.7641602-0.7163086,0.7827148   l-3.7504883,0.1660156C42.1049805,52.331543,42.09375,52.331543,42.0825195,52.331543z" fill="#373684"/><path d="M41.9169922,57.3408203c-0.3618164,0-0.6801758-0.262207-0.7397461-0.6313477   c-0.0654297-0.4086914,0.2128906-0.793457,0.6220703-0.859375l3.3408203-0.5361328   c0.40625-0.0678711,0.793457,0.2124023,0.859375,0.6220703c0.0654297,0.4086914-0.2128906,0.793457-0.6220703,0.859375   l-3.3408203,0.5361328C41.996582,57.3378906,41.956543,57.3408203,41.9169922,57.3408203z" fill="#373684"/><path d="M41.1708984,60.9614258c-0.3745117,0-0.6982422-0.2802734-0.7436523-0.6616211   c-0.0488281-0.4111328,0.2446289-0.7841797,0.65625-0.8330078l3.3261719-0.3950195   c0.4165039-0.0551758,0.7841797,0.2446289,0.8330078,0.65625s-0.2451172,0.784668-0.65625,0.8330078l-3.3261719,0.3950195   C41.2304688,60.9599609,41.2006836,60.9614258,41.1708984,60.9614258z" fill="#373684"/><path d="M33.5385742,16.3344727c-0.3344727,0-0.6396484-0.2255859-0.7260742-0.5644531   c-0.3168945-1.2407227-0.6762695-2.6469727-0.5473633-4.0742188c0.1533203-1.6962891,1.0458984-3.1455078,2.3291016-3.7822266   c0.3725586-0.184082,0.8212891-0.0317383,1.0053711,0.3383789c0.184082,0.3710938,0.0322266,0.8212891-0.3383789,1.0053711   c-0.9799805,0.4858398-1.418457,1.6479492-1.5019531,2.5732422c-0.105957,1.1708984,0.2055664,2.3896484,0.5063477,3.5683594   c0.1025391,0.4013672-0.1396484,0.8095703-0.5410156,0.9121094C33.6625977,16.3271484,33.6000977,16.3344727,33.5385742,16.3344727   z" fill="#373684"/><path d="M25.0327148,29.7573242c-0.3652344,0-0.6855469-0.2675781-0.7407227-0.6396484l-1.2246094-8.2412109   c-0.0610352-0.409668,0.2216797-0.7915039,0.6313477-0.8520508c0.4111328-0.065918,0.7915039,0.222168,0.8520508,0.6313477   l1.2246094,8.2412109c0.0610352,0.409668-0.2216797,0.7915039-0.6313477,0.8520508   C25.1064453,29.7548828,25.0693359,29.7573242,25.0327148,29.7573242z" fill="#373684"/></g></svg>