<?xml version="1.0" ?><svg data-name="Layer 1" id="Layer_1" viewBox="0 0 512 512" xmlns="http://www.w3.org/2000/svg"><path d="M332.56,155.12H179.44a24.35,24.35,0,0,0-24.32,24.31V332.56a24.34,24.34,0,0,0,24.32,24.31H332.56a24.34,24.34,0,0,0,24.32-24.31V179.43A24.35,24.35,0,0,0,332.56,155.12ZM343.5,332.56a11,11,0,0,1-10.94,10.94H179.44a11,11,0,0,1-10.94-10.94V179.43a11,11,0,0,1,10.94-10.94H332.56a11,11,0,0,1,10.94,10.94Z"/><path d="M260.13,277.31a4,4,0,0,0,.66-.64,6,6,0,0,0,1.55-4,6.89,6.89,0,0,0-1.25-3.93,6.38,6.38,0,0,0-3.77-2.59l-.27-.06-7-21.44q-2.4-7.14-4.26-13-2-6-3.8-10.31a32,32,0,0,0-4.05-7.12c-2.3-2.88-4.74-3.49-6.39-3.49-2.32,0-4.45,1.19-6.35,3.53a34.29,34.29,0,0,0-4.16,7.19q-1.95,4.31-4,10.19t-4.21,12.65l-15.92,49.37a7.69,7.69,0,0,0-.16,1.52,5.67,5.67,0,0,0,2.16,4.59,6.52,6.52,0,0,0,4,1.34c1.78,0,4.37-.66,6.6-3.8a3.09,3.09,0,0,0,.48-1l5.44-17.74h31.37L251.48,297a6.49,6.49,0,0,0,6.11,3.82c4,0,6.67-2.39,7-6.22a3.12,3.12,0,0,0-.11-1.18Zm-26.24-37q1.62,4.66,3.31,9.7l3.33,10.09c.57,1.73,1.1,3.41,1.61,5H220l11.1-32.85C231.94,234.71,232.85,237.39,233.89,240.33Z"/><path d="M298.9,271.5q.25-6.78.49-14.35l.8-27.13q.07-3.09.12-5.37l1.62.06c2.41.09,4.52.21,6.31.34,3.64.18,6.49-1.93,7-6.25a6.75,6.75,0,0,0-5.66-6.76c-1-.14-2.5-.3-4.58-.47-.79-.07-3.19-.27-22.77.23-6.91-.18-13.5.3-14.68,5-1,4.14.4,6.19,1.79,7.17a7.15,7.15,0,0,0,5.12,1.24,30.16,30.16,0,0,1,3.42-.22l6.73-.1,2.41,0c0,.6,0,1.25,0,2q0,3.45-.2,8l-1,28.19c-.34,8.43-.56,14.65-.69,18.62-.08,2.32-.15,4.35-.23,6.08q-8.89-.15-11.46-.15a7.73,7.73,0,0,0-3.79,1c-1.25.69-2.74,2.2-2.74,5.32-.08,1.75.52,4.94,5.36,6.6a3.53,3.53,0,0,0,1,.18l35.07.6a6.2,6.2,0,0,0,6.52-5.94,6.45,6.45,0,0,0-1.44-4.93,7.4,7.4,0,0,0-5.52-2.29l-9.8-.14q.18-1.92.3-4.41C298.57,280.05,298.74,276,298.9,271.5Z"/><path d="M430.25,234.08a6.69,6.69,0,0,0,0-13.38H390.08V176.87h40.17a6.69,6.69,0,1,0,0-13.38H389.52a46.84,46.84,0,0,0-41-41V81.76a6.69,6.69,0,1,0-13.38,0v40.15H291.29V81.76a6.69,6.69,0,1,0-13.37,0v40.15H234.08V81.76a6.69,6.69,0,1,0-13.37,0v40.15H176.87V81.76a6.69,6.69,0,1,0-13.38,0v40.71a46.84,46.84,0,0,0-41,41H81.75a6.69,6.69,0,0,0,0,13.38h40.17V220.7H81.75a6.69,6.69,0,1,0,0,13.38h40.17v43.83H81.75a6.69,6.69,0,0,0,0,13.38h40.17v43.84H81.75a6.69,6.69,0,1,0,0,13.37h40.73a46.83,46.83,0,0,0,41,41v40.72a6.69,6.69,0,1,0,13.38,0V390.08h43.84v40.16a6.69,6.69,0,1,0,13.37,0V390.08h43.84v40.16a6.69,6.69,0,1,0,13.37,0V390.08h43.84v40.16a6.69,6.69,0,1,0,13.38,0V389.52a46.83,46.83,0,0,0,41-41h40.73a6.69,6.69,0,1,0,0-13.37H390.08V291.29h40.17a6.69,6.69,0,0,0,0-13.38H390.08V234.08ZM376.71,343A33.75,33.75,0,0,1,343,376.7H169A33.75,33.75,0,0,1,135.29,343V169A33.76,33.76,0,0,1,169,135.29H343A33.76,33.76,0,0,1,376.71,169Z"/></svg>