<?xml version="1.0" encoding="iso-8859-1"?>
<!-- Generator: Adobe Illustrator 22.0.1, SVG Export Plug-In . SVG Version: 6.00 Build 0)  -->
<svg version="1.1" id="Layer_1_1_" xmlns="http://www.w3.org/2000/svg" xmlns:xlink="http://www.w3.org/1999/xlink" x="0px" y="0px"
	 viewBox="0 0 64 64" style="enable-background:new 0 0 64 64;" xml:space="preserve">
<g id="Guide">
</g>
<path d="M38.086,31.382C39.26,30.286,40,28.73,40,27c0-3.309-2.691-6-6-6v-2h-2v2h-2v-2h-2v2h-1c-0.552,0-1,0.448-1,1v10v10
	c0,0.552,0.448,1,1,1h1v2h2v-2h2v2h2v-2h2c3.309,0,6-2.691,6-6C42,34.426,40.368,32.232,38.086,31.382z M28,23h6
	c2.206,0,4,1.794,4,4s-1.794,4-4,4h-6V23z M36,41h-8v-8h6h2c2.206,0,4,1.794,4,4S38.206,41,36,41z"/>
<path d="M37.293,2.293L31.586,8h-9.172l-2.707-2.707C19.52,5.105,19.265,5,19,5h-3v2h2.586l2.707,2.707
	C21.481,9.895,21.735,10,22,10h18.184c0.414,1.161,1.514,2,2.816,2s2.402-0.839,2.816-2h3.77l1.707,1.707
	C51.48,11.895,51.735,12,52,12h10v-2h-9.586l-1.707-1.707C50.52,8.105,50.265,8,50,8h-4.184C45.402,6.839,44.302,6,43,6
	s-2.402,0.839-2.816,2h-5.77l4-4H62V2H38C37.735,2,37.48,2.105,37.293,2.293z M43,8c0.551,0,1,0.449,1,1s-0.449,1-1,1s-1-0.449-1-1
	S42.449,8,43,8z"/>
<path d="M53.293,15.293L50.586,18H44.8c-3.381-3.094-7.867-5-12.8-5c-3.757,0-7.254,1.11-10.206,3h-5.38l-3.707-3.707
	C12.52,12.105,12.265,12,12,12H9.816C9.402,10.839,8.302,10,7,10s-2.402,0.839-2.816,2H2v2h2.184C4.598,15.161,5.698,16,7,16
	s2.402-0.839,2.816-2h1.77l3.707,3.707C15.481,17.895,15.735,18,16,18h3.2c-2.104,1.925-3.775,4.308-4.847,7h-1.939l-2.707-2.707
	C9.52,22.105,9.265,22,9,22H2v2h6.586l2.707,2.707C11.481,26.895,11.735,27,12,27h1.69c-0.352,1.285-0.567,2.622-0.639,4H6v2h7.051
	c0.072,1.378,0.288,2.715,0.639,4H10c-0.265,0-0.52,0.105-0.707,0.293L6.586,40H2v2h5c0.265,0,0.52-0.105,0.707-0.293L10.414,39
	h3.939c0.725,1.82,1.712,3.506,2.932,5H14c-0.265,0-0.52,0.105-0.707,0.293L11.586,46h-1.77C9.402,44.839,8.302,44,7,44
	s-2.402,0.839-2.816,2H2v2h2.184C4.598,49.161,5.698,50,7,50s2.402-0.839,2.816-2H12c0.265,0,0.52-0.105,0.707-0.293L14.414,46H19.2
	c3.381,3.094,7.867,5,12.8,5c3.757,0,7.254-1.11,10.206-3h6.38l3.707,3.707C52.48,51.895,52.735,52,53,52h9v-2h-8.586l-3.707-3.707
	C49.52,46.105,49.265,46,49,46h-4.2c1.568-1.435,2.909-3.115,3.927-5h3.859l3.707,3.707C56.48,44.895,56.735,45,57,45h5v-2h-4.586
	l-3.707-3.707C53.52,39.105,53.265,39,53,39h-3.353c0.746-1.873,1.192-3.891,1.302-6H56v-2h-5.051c-0.072-1.378-0.288-2.715-0.639-4
	H55c0.265,0,0.52-0.105,0.707-0.293L59.414,23H62v-2h-3c-0.265,0-0.52,0.105-0.707,0.293L54.586,25h-4.939
	c-0.725-1.82-1.712-3.506-2.932-5H51c0.265,0,0.52-0.105,0.707-0.293L54.414,17H62v-2h-8C53.735,15,53.48,15.105,53.293,15.293z
	 M7,14c-0.551,0-1-0.449-1-1s0.449-1,1-1s1,0.449,1,1S7.551,14,7,14z M7,48c-0.551,0-1-0.449-1-1s0.449-1,1-1s1,0.449,1,1
	S7.551,48,7,48z M49,32c0,9.374-7.626,17-17,17c-4.68,0-8.923-1.901-12-4.971V44h-0.029C16.901,40.923,15,36.68,15,32
	c0-9.374,7.626-17,17-17c4.68,0,8.923,1.901,12,4.971V20h0.029C47.099,23.077,49,27.32,49,32z"/>
<path d="M44.293,55.293L41.586,58h-9.172l-5.707-5.707C26.52,52.105,26.265,52,26,52H2v2h23.586l4,4h-5.77
	c-0.414-1.161-1.514-2-2.816-2s-2.402,0.839-2.816,2H14c-0.265,0-0.52,0.105-0.707,0.293L11.586,60H2v2h10
	c0.265,0,0.52-0.105,0.707-0.293L14.414,60h3.77c0.414,1.161,1.514,2,2.816,2s2.402-0.839,2.816-2H42
	c0.265,0,0.52-0.105,0.707-0.293L45.414,57h2.172l4.707,4.707C52.48,61.895,52.735,62,53,62h9v-2h-8.586l-3-3H62v-2H45
	C44.735,55,44.48,55.105,44.293,55.293z M21,60c-0.551,0-1-0.449-1-1s0.449-1,1-1s1,0.449,1,1S21.551,60,21,60z"/>
<rect x="58" y="31" width="4" height="2"/>
<rect x="2" y="31" width="2" height="2"/>
<rect x="12" y="5" width="2" height="2"/>
<rect x="8" y="5" width="2" height="2"/>
<rect x="2" y="5" width="4" height="2"/>
<rect x="45" y="31" width="2" height="2"/>
<rect x="17" y="31" width="2" height="2"/>
</svg>
