<?xml version="1.0" encoding="iso-8859-1"?>
<!-- Generator: Adobe Illustrator 22.0.1, SVG Export Plug-In . SVG Version: 6.00 Build 0)  -->
<svg version="1.1" id="Layer_1_1_" xmlns="http://www.w3.org/2000/svg" xmlns:xlink="http://www.w3.org/1999/xlink" x="0px" y="0px"
	 viewBox="0 0 64 64" style="enable-background:new 0 0 64 64;" xml:space="preserve">
<g id="Guide">
</g>
<path d="M62,26c0-6.617-5.383-12-12-12c-2.415,0-4.661,0.723-6.545,1.956l-4.299-5.527c0.324-0.42,0.565-0.901,0.702-1.429H50V7
	H39.858c-0.447-1.72-2-3-3.858-3c-2.206,0-4,1.794-4,4c0,0.018,0.005,0.035,0.005,0.053l-6.745,1.84C23.577,5.296,19.173,2,14.001,2
	c-6.617,0-12,5.383-12,12c0,5.536,3.773,10.195,8.879,11.574L5.706,54.03C3.64,54.184,2,55.895,2,58c0,2.206,1.794,4,4,4
	s4-1.794,4-4c0-0.651-0.171-1.257-0.448-1.8l5.154-4.548C16.863,53.72,19.782,55,23,55c4.003,0,7.544-1.977,9.726-4.998l6.455,3.873
	C39.075,54.234,39,54.607,39,55c0,2.206,1.794,4,4,4s4-1.794,4-4c0-0.323-0.049-0.634-0.122-0.935l8.188-4.367
	C55.798,50.493,56.837,51,58,51c2.206,0,4-1.794,4-4s-1.794-4-4-4c-0.15,0-0.291,0.028-0.437,0.044l-2.377-6.24
	C59.21,34.865,62,30.758,62,26z M60,26c0,5.514-4.486,10-10,10s-10-4.486-10-10s4.486-10,10-10S60,20.486,60,26z M36,6
	c1.103,0,2,0.897,2,2s-0.897,2-2,2s-2-0.897-2-2S34.897,6,36,6z M32.545,9.979C33.236,11.18,34.518,12,36,12
	c0.564,0,1.099-0.12,1.586-0.332l4.294,5.521c-2.379,2.194-3.881,5.326-3.881,8.81c0,1.991,0.495,3.866,1.356,5.52l-6.785,4.272
	C30.379,32.889,26.91,31,23,31c-0.889,0-1.753,0.104-2.588,0.289l-1.915-6.171c4.393-1.784,7.503-6.091,7.503-11.117
	c0-0.745-0.078-1.471-0.208-2.179L32.545,9.979z M4,14C4,8.486,8.486,4,14,4s10,4.486,10,10s-4.486,10-10,10S4,19.514,4,14z M14,26
	c0.889,0,1.753-0.104,2.588-0.289l1.915,6.171C14.109,33.666,11,37.974,11,43c0,2.681,0.894,5.15,2.385,7.15l-5.144,4.539
	c-0.177-0.12-0.37-0.218-0.566-0.309l5.17-28.438C13.226,25.978,13.61,26,14,26z M6,60c-1.103,0-2-0.897-2-2s0.897-2,2-2
	s2,0.897,2,2S7.103,60,6,60z M23,53c-5.514,0-10-4.486-10-10s4.486-10,10-10s10,4.486,10,10S28.514,53,23,53z M33.644,37.48
	l6.785-4.272c1.452,1.923,3.462,3.398,5.795,4.174l-3.289,13.625c-1.065,0.017-2.03,0.449-2.737,1.146l-6.442-3.865
	C34.545,46.69,35,44.9,35,43.001C35,41.009,34.505,39.135,33.644,37.48z M43,57c-1.103,0-2-0.897-2-2s0.897-2,2-2s2,0.897,2,2
	S44.103,57,43,57z M60,47c0,1.103-0.897,2-2,2s-2-0.897-2-2s0.897-2,2-2S60,45.897,60,47z M55.69,43.746
	C54.671,44.472,54,45.656,54,47c0,0.323,0.049,0.634,0.122,0.935l-8.188,4.367c-0.303-0.329-0.66-0.599-1.057-0.813l3.294-13.644
	C48.769,37.937,49.377,38,50.001,38c1.152,0,2.264-0.173,3.319-0.477L55.69,43.746z"/>
<path d="M43.435,30.572l1.641-1.144C44.372,28.42,44,27.234,44,26c0-1.58,0.608-3.071,1.714-4.199l-1.429-1.399
	C42.811,21.906,42,23.894,42,26C42,27.646,42.496,29.227,43.435,30.572z"/>
<path d="M48,32h1v2h2v-2h1.5c1.93,0,3.5-1.57,3.5-3.5c0-1.254-0.669-2.348-1.663-2.966C54.75,24.959,55,24.26,55,23.5
	c0-1.93-1.57-3.5-3.5-3.5H51v-2h-2v2h-1c-0.552,0-1,0.448-1,1v5v5C47,31.552,47.448,32,48,32z M52.5,30H49v-3h2.5h1
	c0.827,0,1.5,0.673,1.5,1.5S53.327,30,52.5,30z M49,22h2.5c0.827,0,1.5,0.673,1.5,1.5S52.327,25,51.5,25H49V22z"/>
<path d="M15,22v-2h1.5c1.93,0,3.5-1.57,3.5-3.5c0-1.254-0.669-2.348-1.663-2.966C18.75,12.959,19,12.26,19,11.5
	C19,9.57,17.43,8,15.5,8H15V6h-2v2h-1c-0.552,0-1,0.448-1,1v5v5c0,0.552,0.448,1,1,1h1v2H15z M16.5,18H13v-3h2.5h1
	c0.827,0,1.5,0.673,1.5,1.5S17.327,18,16.5,18z M13,10h2.5c0.827,0,1.5,0.673,1.5,1.5S16.327,13,15.5,13H13V10z"/>
<path d="M27.337,42.534C27.75,41.959,28,41.26,28,40.5c0-1.93-1.57-3.5-3.5-3.5H24v-2h-2v2h-1c-0.552,0-1,0.448-1,1v5v5
	c0,0.552,0.448,1,1,1h1v2h2v-2h1.5c1.93,0,3.5-1.57,3.5-3.5C29,44.246,28.331,43.152,27.337,42.534z M22,39h2.5
	c0.827,0,1.5,0.673,1.5,1.5S25.327,42,24.5,42H22V39z M25.5,47H22v-3h2.5h1c0.827,0,1.5,0.673,1.5,1.5S26.327,47,25.5,47z"/>
<rect x="52" y="7" width="2" height="2"/>
<rect x="56" y="7" width="2" height="2"/>
<rect x="60" y="7" width="2" height="2"/>
</svg>
