<?xml version="1.0" encoding="iso-8859-1"?>
<!-- Generator: Adobe Illustrator 16.0.0, SVG Export Plug-In . SVG Version: 6.00 Build 0)  -->
<!DOCTYPE svg PUBLIC "-//W3C//DTD SVG 1.1//EN" "http://www.w3.org/Graphics/SVG/1.1/DTD/svg11.dtd">
<svg version="1.1" id="Capa_1" xmlns="http://www.w3.org/2000/svg" xmlns:xlink="http://www.w3.org/1999/xlink" x="0px" y="0px"
	 width="478.125px" height="478.125px" viewBox="0 0 478.125 478.125" style="enable-background:new 0 0 478.125 478.125;"
	 xml:space="preserve">
<g>
	<path d="M420.75,19.125h9.562V0H95.625C68.85,0,47.812,21.038,47.812,47.812V420.75c0,32.513,24.862,57.375,57.375,57.375h19.125
		V76.5H95.625c-15.3,0-28.688-13.388-28.688-28.688s13.388-28.688,28.688-28.688H382.5c0,0-9.562,13.388-9.562,28.688
		S382.5,76.5,382.5,76.5H143.438v401.625h286.875V76.5h-9.562c-15.3,0-28.688-13.388-28.688-28.688S405.45,19.125,420.75,19.125z"/>
</g>
<g>
</g>
<g>
</g>
<g>
</g>
<g>
</g>
<g>
</g>
<g>
</g>
<g>
</g>
<g>
</g>
<g>
</g>
<g>
</g>
<g>
</g>
<g>
</g>
<g>
</g>
<g>
</g>
<g>
</g>
</svg>
