<?xml version="1.0" ?><!DOCTYPE svg  PUBLIC '-//W3C//DTD SVG 1.1//EN'  'http://www.w3.org/Graphics/SVG/1.1/DTD/svg11.dtd'><svg height="100%" style="fill-rule:evenodd;clip-rule:evenodd;stroke-linejoin:round;stroke-miterlimit:2;" version="1.1" viewBox="0 0 32 32" width="100%" xml:space="preserve" xmlns="http://www.w3.org/2000/svg" xmlns:serif="http://www.serif.com/" xmlns:xlink="http://www.w3.org/1999/xlink"><path d="M29,9c0,-0.29 -0.126,-0.566 -0.346,-0.756l-5.779,-5c-0.182,-0.157 -0.414,-0.244 -0.654,-0.244l-14.221,0c-1.326,-0 -2.598,0.527 -3.536,1.464c-0.937,0.938 -1.464,2.21 -1.464,3.536c-0,4.439 -0,11.561 -0,16c-0,1.326 0.527,2.598 1.464,3.536c0.938,0.937 2.21,1.464 3.536,1.464c4.439,0 11.561,0 16,0c1.326,0 2.598,-0.527 3.536,-1.464c0.937,-0.938 1.464,-2.21 1.464,-3.536c0,-5.574 0,-15 0,-15Zm-6,18l0,-6.25c0,-1.518 -1.232,-2.75 -2.75,-2.75l-8.5,0c-1.518,0 -2.75,1.232 -2.75,2.75l0,6.25l14,0Zm-13,-22l-2,-0c-0.796,-0 -1.559,0.316 -2.121,0.879c-0.563,0.562 -0.879,1.325 -0.879,2.121l-0,16c-0,0.796 0.316,1.559 0.879,2.121c0.319,0.32 0.703,0.56 1.121,0.707l0,-6.078c0,-2.622 2.128,-4.75 4.75,-4.75c0,0 8.5,0 8.5,0c2.622,0 4.75,2.128 4.75,4.75l0,6.078c0.418,-0.147 0.802,-0.387 1.121,-0.707c0.563,-0.562 0.879,-1.325 0.879,-2.121l-0,-14.543l-5,-4.326l0,2.952c0,2.201 -1.613,3.917 -3.5,3.917l-5,0c-1.887,0 -3.5,-1.716 -3.5,-3.917l0,-3.083Zm2,-0l0,3.083c0,1.02 0.626,1.917 1.5,1.917c0,0 5,0 5,0c0.874,0 1.5,-0.897 1.5,-1.917l0,-3.083l-8,-0Z"/></svg>