<?xml version="1.0" ?><svg viewBox="0 0 64 64" xmlns="http://www.w3.org/2000/svg"><title/><g id="Document"><path d="M59,2H21a1,1,0,0,0-1,1v8H12a1,1,0,0,0-1,1V50H5a1,1,0,0,0-1,1v4a7.0078,7.0078,0,0,0,7,7H46a5.0059,5.0059,0,0,0,5-5V53h8a1,1,0,0,0,1-1V3A1,1,0,0,0,59,2ZM11,60a5.0059,5.0059,0,0,1-5-5V52H41v5a4.9769,4.9769,0,0,0,.0937.9268c.0182.0967.0475.1881.0712.2827a4.9528,4.9528,0,0,0,.1844.5925c.04.1017.083.2.129.2982a4.9819,4.9819,0,0,0,.2825.52c.054.087.105.1746.1641.258.0278.0393.0487.0835.0775.1219Zm38-3a3,3,0,0,1-6,0V51a1,1,0,0,0-1-1H13V13H49V57Zm9-6H51V12a1,1,0,0,0-1-1H22V4H58Z"/><path d="M42,18H20a1,1,0,0,0-1,1v6a1,1,0,0,0,1,1H42a1,1,0,0,0,1-1V19A1,1,0,0,0,42,18Zm-1,6H21V20H41Z"/><path d="M42,30H24a1,1,0,0,0,0,2H42a1,1,0,0,0,0-2Z"/><path d="M42,36H20a1,1,0,0,0,0,2H42a1,1,0,0,0,0-2Z"/><path d="M42,42H20a1,1,0,0,0,0,2H42a1,1,0,0,0,0-2Z"/></g></svg>