<?xml version='1.0' encoding='iso-8859-1'?>
<svg version="1.1" xmlns="http://www.w3.org/2000/svg" viewBox="0 0 137.145 137.145" xmlns:xlink="http://www.w3.org/1999/xlink" enable-background="new 0 0 137.145 137.145">
  <g>
    <g>
      <path d="m51.858,78.644c0,0-13.069-3.23-17.572,17.357-2.555,11.684-6.857,13.714-6.857,13.714s18.071,1.499 27.429-6.857c8.631-7.708 6.857-17.357 6.857-17.357l-9.857-6.857zm3-6.429l13.5,9.643 34.929-50.358-7.286-4.072-41.143,44.787zm54.857-72.215h-82.286c-15.148,0-27.429,12.281-27.429,27.428v82.287c0,15.148 12.28,27.429 27.429,27.429h82.286c15.149,0 27.429-12.281 27.429-27.429v-82.287c0-15.147-12.28-27.428-27.429-27.428zm13.715,102.858c0,11.361-9.21,20.572-20.571,20.572h-68.573c-11.361,0-20.572-9.211-20.572-20.572v-68.572c0-11.361 9.21-20.572 20.572-20.572h68.572c11.361,0 20.571,9.211 20.571,20.572v68.572z"/>
    </g>
  </g>
</svg>
