<svg id="Layer_1" data-name="Layer 1" xmlns="http://www.w3.org/2000/svg" viewBox="0 0 200 200"><defs><style>.cls-1{fill:#231f20;}</style></defs><title>Wondicon - UI (Free)</title><path class="cls-1" d="M29.31,175.69a5,5,0,0,1-5-5V29.31a5,5,0,0,1,10,0V170.69A5,5,0,0,1,29.31,175.69Z"/><path class="cls-1" d="M29.31,130a5,5,0,0,1-3.85-8.19l20.69-25a5,5,0,0,1,6.25-1.2l29,15.88,40-40a5,5,0,0,1,5.94-.85l18.66,10.21L166.42,47.4A5,5,0,0,1,175,52.6L152.11,90.1a5,5,0,0,1-6.67,1.79L125.89,81.18l-40,40a5,5,0,0,1-5.94.85l-28.7-15.69L33.16,128.19A5,5,0,0,1,29.31,130Z"/><path class="cls-1" d="M170.69,155H29.31a5,5,0,0,1,0-10H170.69a5,5,0,0,1,0,10Z"/></svg>